<svg width="116" height="39" viewBox="0 0 116 39" fill="none" xmlns="http://www.w3.org/2000/svg">
<rect y="0.404175" width="40.0494" height="38.593" rx="8.00987" fill="url(#paint0_linear_221_16)"/>
<path fill-rule="evenodd" clip-rule="evenodd" d="M26.1781 13.2317L32.5595 19.6131L26.1781 25.9945L23.6939 23.5103L25.8344 21.3697H10.2523V17.8565H25.8344L23.6939 15.7159L26.1781 13.2317Z" fill="white"/>
<path d="M72.8142 8.93649L65.6445 30.0001H58.4342L51.2645 8.93649H57.3406L62.2014 24.9368L67.0622 8.93649H72.8142ZM72.5955 19.4683C72.5955 13.3112 76.2007 8.32889 83.1274 8.32889C90.054 8.32889 93.2541 13.3112 93.2541 19.4683C93.2541 19.9544 93.2136 20.6835 93.2136 20.6835H78.307C78.5501 23.9241 79.9273 26.3545 83.3299 26.3545C86.773 26.3545 87.3806 23.1139 87.3806 23.1139H93.0516C93.0516 23.1139 91.8364 30.6077 83.1274 30.6077C76.0386 30.6077 72.5955 25.6254 72.5955 19.4683ZM83.1274 12.5821C80.3324 12.5821 78.9551 14.4454 78.4691 17.0379H87.4211C87.0565 14.4454 85.9223 12.5821 83.1274 12.5821ZM94.6687 23.1139H100.137C100.137 23.1139 100.137 26.7596 104.593 26.7596C107.631 26.7596 108.441 25.3418 108.441 24.1266C108.441 19.6708 95.0737 23.1139 95.0737 15.0125C95.0737 11.3669 98.5168 8.32889 104.188 8.32889C112.289 8.32889 113.504 12.9872 113.504 15.0125H108.036C108.036 15.0125 108.036 12.1771 104.188 12.1771C101.96 12.1771 100.745 13.3112 100.745 14.6075C100.745 18.2531 114.112 15.6201 114.112 23.519C114.112 27.5697 110.669 30.6077 104.593 30.6077C96.289 30.6077 94.6687 25.5444 94.6687 23.1139Z" fill="white"/>
<defs>
<linearGradient id="paint0_linear_221_16" x1="36.2746" y1="-1.48208" x2="13.3397" y2="40.1752" gradientUnits="userSpaceOnUse">
<stop stop-color="#FF9649"/>
<stop offset="1" stop-color="#ED6400"/>
</linearGradient>
</defs>
</svg>
