<svg width="300" height="166" viewBox="0 0 300 166" fill="none" xmlns="http://www.w3.org/2000/svg">
<path fill-rule="evenodd" clip-rule="evenodd" d="M247 16C247 9.10594 242.32 0 235.425 0H25C11.1929 0 0 11.1929 0 25V141C0 154.807 11.1929 166 25 166H275C288.807 166 300 154.807 300 141V61.4996C300 54.1601 286.339 48 279 48H272C258.193 48 247 36.8071 247 23V16ZM274.5 0C263.73 0 255 8.73045 255 19.5C255 30.2696 263.73 39 274.5 39C285.27 39 294 30.2696 294 19.5C294 8.73045 285.27 0 274.5 0Z" fill="url(#paint0_linear_234_81)"/>
<path fill-rule="evenodd" clip-rule="evenodd" d="M247 16C247 9.10594 242.32 0 235.425 0H25C11.1929 0 0 11.1929 0 25V141C0 154.807 11.1929 166 25 166H275C288.807 166 300 154.807 300 141V61.4996C300 54.1601 286.339 48 279 48H272C258.193 48 247 36.8071 247 23V16ZM274.5 0C263.73 0 255 8.73045 255 19.5C255 30.2696 263.73 39 274.5 39C285.27 39 294 30.2696 294 19.5C294 8.73045 285.27 0 274.5 0Z" fill="url(#paint1_linear_234_81)"/>
<path fill-rule="evenodd" clip-rule="evenodd" d="M277.978 14.293L282.914 19.2292L277.978 24.1655L276.564 22.7513L279.086 20.2292H267V18.2292H279.086L276.564 15.7072L277.978 14.293Z" fill="white"/>
<defs>
<linearGradient id="paint0_linear_234_81" x1="4" y1="-9" x2="262.767" y2="190.101" gradientUnits="userSpaceOnUse">
<stop stop-color="#FF9649"/>
<stop offset="1" stop-color="#ED6400"/>
</linearGradient>
<linearGradient id="paint1_linear_234_81" x1="4" y1="-9" x2="262.767" y2="190.101" gradientUnits="userSpaceOnUse">
<stop stop-color="#3F3F3F"/>
<stop offset="1" stop-color="#010101"/>
</linearGradient>
</defs>
</svg>
