<svg width="64" height="63" viewBox="0 0 64 63" fill="none" xmlns="http://www.w3.org/2000/svg">
<g filter="url(#filter0_d_615_125)">
<circle cx="32" cy="31.459" r="25" fill="white"/>
<path fill-rule="evenodd" clip-rule="evenodd" d="M29.4281 6.52099C28.1267 6.66916 26.426 7.00275 25.1507 7.3599C16.2525 9.85189 9.28063 17.3383 7.45274 26.364C7.06703 28.2689 7 29.0202 7 31.4425C7 33.8648 7.06703 34.6161 7.45274 36.521C9.1409 44.8567 15.2079 51.9039 23.3038 54.9329C27.2219 56.3988 32.0777 56.842 36.2762 56.1171C45.636 54.501 53.4492 47.5332 56.0537 38.4798C56.7986 35.8907 57 34.3929 57 31.4425C57 29.0044 56.9281 28.2048 56.5429 26.36C55.1299 19.593 51.0214 13.7569 45.1012 10.1068C42.1894 8.3116 39.243 7.2385 35.6242 6.65548C34.5211 6.47779 30.562 6.39187 29.4281 6.52099ZM29.89 22.1571C31.9248 25.1138 33.6012 27.5329 33.6156 27.5329C33.6299 27.5329 35.7242 25.1138 38.2694 22.1571L42.897 16.7814H44.1021C44.765 16.7814 45.3072 16.8044 45.3072 16.8324C45.3072 16.869 37.1275 26.4127 34.8634 29.0177C34.7334 29.1674 35.2678 29.9795 40.5027 37.5856C43.6834 42.207 46.2857 46.0141 46.2857 46.0458C46.2857 46.0776 44.3814 46.1031 42.0538 46.1024L37.8219 46.1013L33.9239 40.4282C31.78 37.308 29.9886 34.7685 29.9432 34.7848C29.8977 34.8012 27.6735 37.3546 25.0006 40.4591L20.1407 46.1036H18.9275C18.2603 46.1036 17.7143 46.0851 17.7143 46.0625C17.7143 46.0399 20.2225 43.1104 23.2881 39.5522L28.8618 33.083L28.4539 32.4826C28.2296 32.1525 25.7214 28.5022 22.8801 24.3709C20.0389 20.2396 17.7143 16.8419 17.7143 16.8204C17.7143 16.799 19.6215 16.7814 21.9525 16.7814H26.1907L29.89 22.1571ZM21.4003 19.1663C21.6064 19.4566 25.6497 25.2382 30.3855 32.0144L38.9961 44.3347L40.939 44.3395C42.6277 44.3437 42.8747 44.3251 42.8256 44.1975C42.7946 44.1169 38.7721 38.3348 33.8866 31.3486L25.0039 18.6462L23.0148 18.6424L21.0256 18.6385L21.4003 19.1663Z" fill="#ED6400"/>
</g>
<defs>
<filter id="filter0_d_615_125" x="0.9" y="0.358984" width="62.2" height="62.2" filterUnits="userSpaceOnUse" color-interpolation-filters="sRGB">
<feFlood flood-opacity="0" result="BackgroundImageFix"/>
<feColorMatrix in="SourceAlpha" type="matrix" values="0 0 0 0 0 0 0 0 0 0 0 0 0 0 0 0 0 0 127 0" result="hardAlpha"/>
<feOffset/>
<feGaussianBlur stdDeviation="3.05"/>
<feComposite in2="hardAlpha" operator="out"/>
<feColorMatrix type="matrix" values="0 0 0 0 1 0 0 0 0 1 0 0 0 0 1 0 0 0 0.47 0"/>
<feBlend mode="normal" in2="BackgroundImageFix" result="effect1_dropShadow_615_125"/>
<feBlend mode="normal" in="SourceGraphic" in2="effect1_dropShadow_615_125" result="shape"/>
</filter>
</defs>
</svg>
