<svg width="64" height="63" viewBox="0 0 64 63" fill="none" xmlns="http://www.w3.org/2000/svg">
<g filter="url(#filter0_d_615_118)">
<circle cx="32" cy="31.459" r="25" fill="white"/>
<path d="M29.2559 32.832C29.2559 34.8398 27.8174 36.4736 26.0088 36.4736C24.2285 36.4736 22.7617 34.8398 22.7617 32.832C22.7617 30.8252 24.2002 29.1904 26.0088 29.1904C27.8311 29.1904 29.2842 30.8398 29.2559 32.832Z" fill="#ED6400"/>
<path d="M41.2607 32.832C41.2607 34.8398 39.8369 36.4736 38.0137 36.4736C36.2334 36.4736 34.7666 34.8398 34.7666 32.832C34.7666 30.8252 36.2051 29.1904 38.0137 29.1904C39.8369 29.1904 41.2891 30.8398 41.2607 32.832Z" fill="#ED6400"/>
<path d="M32 6.45898C18.1934 6.45898 7 17.6523 7 31.459C7 45.2656 18.1934 56.459 32 56.459C45.8066 56.459 57 45.2656 57 31.459C57 17.6523 45.8066 6.45898 32 6.45898ZM49.8623 40.6631C46.7725 42.9326 43.7783 44.3105 40.8262 45.2236C40.7793 45.2383 40.7285 45.2207 40.6992 45.1807C40.0176 44.2314 39.3984 43.2305 38.8555 42.1797C38.8242 42.1182 38.8525 42.0439 38.917 42.0195C39.9004 41.6475 40.8359 41.2031 41.7363 40.6777C41.8076 40.6357 41.8115 40.5342 41.7461 40.4854C41.5557 40.3437 41.3662 40.1943 41.1855 40.0449C41.1514 40.0176 41.1055 40.0117 41.0674 40.0303C35.2236 42.7305 28.8223 42.7305 22.9092 40.0303C22.8711 40.0137 22.8252 40.0195 22.793 40.0469C22.6123 40.1953 22.4229 40.3437 22.2334 40.4854C22.168 40.5342 22.1729 40.6357 22.2441 40.6777C23.1445 41.1934 24.0801 41.6475 25.0625 42.0205C25.127 42.0449 25.1572 42.1182 25.125 42.1797C24.5947 43.2324 23.9746 44.2324 23.2803 45.1816C23.25 45.2207 23.2002 45.2383 23.1533 45.2236C20.2148 44.3105 17.2217 42.9326 14.1309 40.6631C14.1055 40.6426 14.0869 40.6113 14.084 40.5781C13.4551 33.8369 14.7383 27.0117 19.4219 20.0137C19.4336 19.9951 19.4502 19.9805 19.4707 19.9727C21.7744 18.9141 24.2441 18.1357 26.8242 17.6914C26.8711 17.6846 26.918 17.7061 26.9424 17.7471C27.2617 18.3125 27.626 19.0361 27.873 19.6279C30.5928 19.2129 33.3555 19.2129 36.1328 19.6279C36.3789 19.0488 36.7305 18.3125 37.0479 17.7471C37.0723 17.7041 37.1191 17.6826 37.166 17.6914C39.748 18.1367 42.2178 18.916 44.5205 19.9727C44.541 19.9805 44.5576 19.9951 44.5674 20.0156C48.6475 26.0166 50.6631 32.7861 49.9092 40.5801C49.9063 40.6133 49.8896 40.6426 49.8623 40.6631Z" fill="#ED6400"/>
</g>
<defs>
<filter id="filter0_d_615_118" x="0.9" y="0.358984" width="62.2" height="62.2" filterUnits="userSpaceOnUse" color-interpolation-filters="sRGB">
<feFlood flood-opacity="0" result="BackgroundImageFix"/>
<feColorMatrix in="SourceAlpha" type="matrix" values="0 0 0 0 0 0 0 0 0 0 0 0 0 0 0 0 0 0 127 0" result="hardAlpha"/>
<feOffset/>
<feGaussianBlur stdDeviation="3.05"/>
<feComposite in2="hardAlpha" operator="out"/>
<feColorMatrix type="matrix" values="0 0 0 0 1 0 0 0 0 1 0 0 0 0 1 0 0 0 0.47 0"/>
<feBlend mode="normal" in2="BackgroundImageFix" result="effect1_dropShadow_615_118"/>
<feBlend mode="normal" in="SourceGraphic" in2="effect1_dropShadow_615_118" result="shape"/>
</filter>
</defs>
</svg>
