<svg width="50" height="51" viewBox="0 0 50 51" fill="none" xmlns="http://www.w3.org/2000/svg">
<path d="M22.2559 26.832C22.2559 28.8398 20.8174 30.4736 19.0088 30.4736C17.2285 30.4736 15.7617 28.8398 15.7617 26.832C15.7617 24.8252 17.2002 23.1904 19.0088 23.1904C20.8311 23.1904 22.2842 24.8398 22.2559 26.832Z" fill="white"/>
<path d="M34.2607 26.832C34.2607 28.8398 32.8369 30.4736 31.0137 30.4736C29.2334 30.4736 27.7666 28.8398 27.7666 26.832C27.7666 24.8252 29.2051 23.1904 31.0137 23.1904C32.8369 23.1904 34.2891 24.8398 34.2607 26.832Z" fill="white"/>
<path d="M25 0.458984C11.1934 0.458984 0 11.6523 0 25.459C0 39.2656 11.1934 50.459 25 50.459C38.8066 50.459 50 39.2656 50 25.459C50 11.6523 38.8066 0.458984 25 0.458984ZM42.8623 34.6631C39.7725 36.9326 36.7783 38.3105 33.8262 39.2236C33.7793 39.2383 33.7285 39.2207 33.6992 39.1807C33.0176 38.2314 32.3984 37.2305 31.8555 36.1797C31.8242 36.1182 31.8525 36.0439 31.917 36.0195C32.9004 35.6475 33.8359 35.2031 34.7363 34.6777C34.8076 34.6357 34.8115 34.5342 34.7461 34.4854C34.5557 34.3437 34.3662 34.1943 34.1855 34.0449C34.1514 34.0176 34.1055 34.0117 34.0674 34.0303C28.2236 36.7305 21.8223 36.7305 15.9092 34.0303C15.8711 34.0137 15.8252 34.0195 15.793 34.0469C15.6123 34.1953 15.4229 34.3437 15.2334 34.4854C15.168 34.5342 15.1729 34.6357 15.2441 34.6777C16.1445 35.1934 17.0801 35.6475 18.0625 36.0205C18.127 36.0449 18.1572 36.1182 18.125 36.1797C17.5947 37.2324 16.9746 38.2324 16.2803 39.1816C16.25 39.2207 16.2002 39.2383 16.1533 39.2236C13.2148 38.3105 10.2217 36.9326 7.13086 34.6631C7.10547 34.6426 7.08691 34.6113 7.08398 34.5781C6.45508 27.8369 7.73828 21.0117 12.4219 14.0137C12.4336 13.9951 12.4502 13.9805 12.4707 13.9727C14.7744 12.9141 17.2441 12.1357 19.8242 11.6914C19.8711 11.6846 19.918 11.7061 19.9424 11.7471C20.2617 12.3125 20.626 13.0361 20.873 13.6279C23.5928 13.2129 26.3555 13.2129 29.1328 13.6279C29.3789 13.0488 29.7305 12.3125 30.0479 11.7471C30.0723 11.7041 30.1191 11.6826 30.166 11.6914C32.748 12.1367 35.2178 12.916 37.5205 13.9727C37.541 13.9805 37.5576 13.9951 37.5674 14.0156C41.6475 20.0166 43.6631 26.7861 42.9092 34.5801C42.9063 34.6133 42.8896 34.6426 42.8623 34.6631Z" fill="white"/>
</svg>
