<svg width="64" height="63" viewBox="0 0 64 63" fill="none" xmlns="http://www.w3.org/2000/svg">
<g filter="url(#filter0_d_615_123)">
<circle cx="32" cy="31.459" r="25" fill="white"/>
<path fill-rule="evenodd" clip-rule="evenodd" d="M29.4281 6.52105C28.1267 6.66937 26.426 7.00328 25.1507 7.36077C16.249 9.85617 9.28141 17.3454 7.45274 26.3833C7.06703 28.2901 7 29.0421 7 31.4668C7 33.8915 7.06703 34.6435 7.45274 36.5502C9.31223 45.7407 16.4583 53.2913 25.5533 55.6753C28.0045 56.3178 29.1009 56.4531 31.9022 56.4587C34.5094 56.464 35.2361 56.3976 37.2348 55.9708C46.1694 54.0632 53.4693 47.3306 56.007 38.6577C56.7943 35.9672 57 34.4778 57 31.4668C57 28.9718 56.9283 28.2089 56.5078 26.2326C54.952 18.9196 50.1704 12.6601 43.4971 9.20087C41.0161 7.91482 38.6115 7.13741 35.6242 6.65567C34.5211 6.47781 30.562 6.39181 29.4281 6.52105ZM43.9797 21.8808C44.5388 22.4306 44.5635 22.2699 42.2253 33.2717C41.0103 38.989 40.0259 43.4019 39.9191 43.6113C39.8164 43.8124 39.6341 44.0458 39.5138 44.13C39.1933 44.3545 38.5736 44.3191 38.102 44.0493C37.8793 43.9221 36.3428 42.8188 34.6876 41.5976L31.6781 39.3772L31.1302 39.898C30.8289 40.1844 30.0537 40.9301 29.4076 41.5552C28.6019 42.3347 28.1156 42.7295 27.8594 42.8123C27.654 42.8787 27.4679 42.915 27.4459 42.893C27.4239 42.871 27.5052 41.4357 27.6265 39.7035C27.8258 36.8602 27.866 36.5362 28.0401 36.3728C28.1461 36.2732 30.7647 33.9093 33.8591 31.1196C36.9535 28.3299 39.5176 26.0011 39.5571 25.9444C39.7557 25.6591 39.2375 25.4878 38.8296 25.7038C38.706 25.7694 35.3985 27.8414 31.4798 30.3081C27.5613 32.7749 24.3284 34.7932 24.2957 34.7932C24.1175 34.7932 17.8259 32.7924 17.6423 32.6773C17.5219 32.602 17.3539 32.4342 17.269 32.3045C17.1294 32.0915 17.1291 32.0406 17.2653 31.7772C17.3481 31.6169 17.5641 31.3942 17.745 31.2824C18.0219 31.1113 41.4489 22.0148 42.6164 21.6251C43.1465 21.4481 43.6325 21.5393 43.9797 21.8808Z" fill="#ED6400"/>
</g>
<defs>
<filter id="filter0_d_615_123" x="0.9" y="0.358984" width="62.2" height="62.2" filterUnits="userSpaceOnUse" color-interpolation-filters="sRGB">
<feFlood flood-opacity="0" result="BackgroundImageFix"/>
<feColorMatrix in="SourceAlpha" type="matrix" values="0 0 0 0 0 0 0 0 0 0 0 0 0 0 0 0 0 0 127 0" result="hardAlpha"/>
<feOffset/>
<feGaussianBlur stdDeviation="3.05"/>
<feComposite in2="hardAlpha" operator="out"/>
<feColorMatrix type="matrix" values="0 0 0 0 1 0 0 0 0 1 0 0 0 0 1 0 0 0 0.47 0"/>
<feBlend mode="normal" in2="BackgroundImageFix" result="effect1_dropShadow_615_123"/>
<feBlend mode="normal" in="SourceGraphic" in2="effect1_dropShadow_615_123" result="shape"/>
</filter>
</defs>
</svg>
