<svg width="57" height="58" viewBox="0 0 57 58" fill="none" xmlns="http://www.w3.org/2000/svg">
<path fill-rule="evenodd" clip-rule="evenodd" d="M25.5505 0.52969C24.068 0.698658 22.1305 1.07906 20.6776 1.48632C10.5367 4.32913 2.59903 12.861 0.515771 23.1572C0.0763568 25.3294 0 26.1862 0 28.9484C0 31.7106 0.0763568 32.5674 0.515771 34.7396C2.63414 45.2096 10.7751 53.8113 21.1363 56.5273C23.9288 57.2592 25.1778 57.4134 28.3691 57.4197C31.3393 57.4258 32.1672 57.3501 34.4442 56.8639C44.6226 54.6907 52.9388 47.0208 55.8299 37.1405C56.7267 34.0754 56.9611 32.3786 56.9611 28.9484C56.9611 26.106 56.8794 25.2369 56.4004 22.9855C54.6279 14.6543 49.1806 7.52347 41.5782 3.58259C38.7519 2.1175 36.0125 1.23187 32.6093 0.683055C31.3527 0.480427 26.8424 0.382457 25.5505 0.52969ZM42.1281 18.0278C42.7651 18.6542 42.7931 18.4712 40.1295 31.0046C38.7452 37.5178 37.6238 42.5451 37.5021 42.7837C37.3852 43.0128 37.1775 43.2787 37.0404 43.3747C36.6753 43.6303 35.9693 43.59 35.432 43.2827C35.1783 43.1377 33.4279 41.8808 31.5423 40.4896L28.1138 37.9601L27.4897 38.5534C27.1463 38.8797 26.2633 39.7293 25.5273 40.4413C24.6093 41.3293 24.0553 41.7792 23.7635 41.8735C23.5295 41.9491 23.3175 41.9905 23.2924 41.9654C23.2673 41.9403 23.3599 40.3051 23.4982 38.3318C23.7252 35.0927 23.771 34.7236 23.9693 34.5374C24.0901 34.4239 27.0732 31.7309 30.5985 28.5528C34.1237 25.3748 37.0448 22.7218 37.0898 22.6571C37.316 22.3321 36.7256 22.137 36.261 22.3831C36.1201 22.4579 32.3522 24.8183 27.888 27.6284C23.4238 30.4387 19.7409 32.7379 19.7036 32.7379C19.5006 32.7379 12.3331 30.4585 12.1239 30.3275C11.9868 30.2416 11.7954 30.0505 11.6986 29.9027C11.5396 29.6601 11.5392 29.6021 11.6944 29.3021C11.7888 29.1194 12.0348 28.8657 12.2409 28.7383C12.5564 28.5434 39.2449 18.1805 40.575 17.7366C41.1788 17.5349 41.7325 17.6388 42.1281 18.0278Z" fill="white"/>
</svg>
