<svg width="58" height="58" viewBox="0 0 58 58" fill="none" xmlns="http://www.w3.org/2000/svg">
<path fill-rule="evenodd" clip-rule="evenodd" d="M26.5116 0.529622C25.0291 0.698426 23.0916 1.07846 21.6387 1.48532C11.5018 4.32426 3.5592 12.853 1.47683 23.1352C1.03742 25.3053 0.96106 26.1612 0.96106 28.9207C0.96106 31.6803 1.03742 32.5362 1.47683 34.7063C3.40002 44.2025 10.3117 52.2308 19.5347 55.6815C23.9983 57.3515 29.5301 57.8564 34.3132 57.0306C44.976 55.1894 53.877 47.2516 56.8441 36.9378C57.6927 33.9882 57.9221 32.2819 57.9221 28.9207C57.9221 26.1431 57.8402 25.2323 57.4013 23.1306C55.7917 15.4215 51.1112 8.77295 44.3667 4.61465C41.0496 2.56952 37.6929 1.34703 33.5703 0.682837C32.3137 0.480406 27.8034 0.382531 26.5116 0.529622ZM27.0379 18.3427C29.3559 21.7109 31.2657 24.4668 31.2821 24.4668C31.2985 24.4668 33.6842 21.7109 36.5838 18.3427L41.8556 12.2185H43.2285C43.9837 12.2185 44.6015 12.2447 44.6015 12.2766C44.6015 12.3183 35.2829 23.1906 32.7036 26.1584C32.5555 26.3289 33.1643 27.2541 39.1281 35.9191C42.7515 41.1838 45.7162 45.5211 45.7162 45.5571C45.7162 45.5933 43.5468 45.6224 40.8951 45.6216L36.074 45.6204L31.6333 39.1574C29.191 35.6028 27.1502 32.7098 27.0984 32.7284C27.0466 32.747 24.5127 35.656 21.4677 39.1926L15.9312 45.6229H14.5491C13.789 45.6229 13.167 45.6019 13.167 45.5762C13.167 45.5505 16.0244 42.213 19.5168 38.1595L25.8665 30.7896L25.4018 30.1057C25.1463 29.7296 22.2889 25.571 19.052 20.8646C15.8153 16.1581 13.167 12.2874 13.167 12.2629C13.167 12.2385 15.3398 12.2185 17.9953 12.2185H22.8235L27.0379 18.3427ZM17.3662 14.9354C17.6009 15.2661 22.2072 21.8527 27.6023 29.5722L37.4117 43.6078L39.6251 43.6132C41.5489 43.618 41.8302 43.5969 41.7744 43.4515C41.739 43.3597 37.1565 36.7726 31.5908 28.8137L21.4715 14.3429L19.2054 14.3386L16.9394 14.3341L17.3662 14.9354Z" fill="white"/>
</svg>
